<svg width="192" height="192" viewBox="0 0 192 192" fill="none" xmlns="http://www.w3.org/2000/svg">
<g clip-path="url(#clip0_1322_1977)">
<rect width="192" height="192" fill="white"/>
<rect width="192" height="192" fill="#FFD7AA"/>
<path d="M77.3329 139.75C56.9323 129.126 9.25877 131.705 -16.7934 137.109L-44.2105 195.749L205.281 198.768C208.322 194.45 219.401 183.702 212.261 177.376C203.335 169.468 177.246 149.388 140.203 153.819C103.159 158.25 97.7334 150.374 77.3329 139.75Z" fill="#58BDFC"/>
<path d="M76.4766 28C76.4766 28.0956 76.9141 28.7433 78.1458 30.3056C80.0774 32.5803 82.044 35.2546 83.6264 37.7164C84.4142 38.8546 85.1711 39.7674 86.3625 41.0635" stroke="black" stroke-width="8" stroke-linecap="round"/>
<path d="M39.2109 59.7434C39.6636 59.7434 47.626 59.4794 66.8138 57.384C78.3493 56.1243 93.2263 52.1621 101.269 50.3065C109.311 48.4508 109.989 48.2329 111.955 47.8474C113.921 47.4618 117.154 46.9153 121.285 46.1211" stroke="black" stroke-width="8" stroke-linecap="round"/>
<path d="M40.2171 58.4453C40.2171 58.9281 40.0101 69.7124 38.5979 90.5706C37.3927 100.893 35.1958 110.684 31.7706 120.999C28.3455 131.315 23.7587 141.859 19 152.76" stroke="black" stroke-width="8" stroke-linecap="round"/>
<path d="M52.4414 71.9963C52.5152 71.9963 52.5889 71.9963 54.0297 71.9242C55.4704 71.8521 58.276 71.708 61.6676 71.2816C65.0592 70.8553 68.9519 70.1512 72.9625 69.4258" stroke="black" stroke-width="8" stroke-linecap="round"/>
<path d="M72.9609 69.2734C72.9609 69.3673 72.8619 72.6529 70.8982 82.0573C69.0333 88.2245 65.4055 97.2236 63.0408 102.715C60.6761 108.205 59.6845 109.915 57.7129 112.307" stroke="black" stroke-width="8" stroke-linecap="round"/>
<path d="M47.7773 93.2719C47.7773 93.2451 47.7773 93.2183 50.3042 93.1911C52.831 93.1638 57.8846 93.137 63.0913 93.1094" stroke="black" stroke-width="8" stroke-linecap="round"/>
<path d="M120.341 55.8008C118.891 56.2509 109.996 60.9385 101.284 66.6804C98.5652 68.4728 99.802 68.6974 100.72 68.7974C101.637 68.8975 102.326 69.0475 111.707 73.3109C121.087 77.5743 139.138 85.9464 150.795 90.929C162.451 95.9117 167.166 97.2512 173.439 98.7912" stroke="black" stroke-width="8" stroke-linecap="round"/>
<path d="M139.362 62.7617C139.313 62.9059 138.692 64.0657 136.687 67.1651C135.28 69.179 133.079 72.0885 131.424 74.1162C129.768 76.1439 128.723 77.2017 126.443 79.4372" stroke="black" stroke-width="8" stroke-linecap="round"/>
<path d="M75.1708 94.7546C75.9361 94.6707 79.9944 93.5944 84.0878 92.551C90.7629 90.8493 86.6756 110.261 85.4529 110.674C82.7816 111.578 77.4241 113.041 72.1553 115.827C69.7153 117.118 71.2839 125.31 72.1776 134.186C72.4601 136.993 73.264 136.231 73.845 135.689C74.8925 134.712 80.8334 132.427 89.3882 132.773C99.6664 133.188 95.3598 154.579 95.638 162.573C95.7289 165.184 94.7092 164.847 93.9955 164.505C93.2819 164.163 92.6473 163.823 88.9081 162.515C85.1688 161.207 78.344 158.94 71.3124 156.605" stroke="black" stroke-width="8" stroke-linecap="round"/>
<path d="M104.511 95.2852C104.511 95.3338 104.428 99.4317 103.99 106.838C103.635 110.171 103.009 112.641 102.401 114.621C101.793 116.6 101.22 118.013 100.244 120.135" stroke="black" stroke-width="8" stroke-linecap="round"/>
<path d="M105.5 94.6887C105.442 94.573 111.5 95.9918 118.416 94.6887C122.628 93.8952 122.689 93.3237 122.906 95.9924C123.512 103.449 123.629 111.754 124.726 116.769C125.108 118.513 125.976 118.395 127.803 117.923C132.604 116.568 137.751 114.622 141.33 112.913C142.826 112.242 143.672 111.967 144.543 111.683" stroke="black" stroke-width="8" stroke-linecap="round"/>
<path d="M110.166 136.491C112.778 136.407 122.51 134.947 129.48 133.559C131.697 133.118 131.403 134.591 130.548 136.403C129.693 138.215 128.329 140.673 124.918 145.283C121.508 149.893 116.093 156.579 110.712 163.631" stroke="black" stroke-width="8" stroke-linecap="round"/>
<path d="M108.572 145.035C108.624 145.035 112.881 145.162 120.856 145.607C127.73 146.435 137.911 149.024 148.843 152.343C152.82 153.595 153.607 153.97 154.418 154.357" stroke="black" stroke-width="8" stroke-linecap="round"/>
</g>
<defs>
<clipPath id="clip0_1322_1977">
<rect width="192" height="192" fill="white"/>
</clipPath>
</defs>
</svg>
